<svg width="21" height="21" viewBox="0 0 21 21" fill="none" xmlns="http://www.w3.org/2000/svg">
<path d="M10.5 2.1C11.7685 2.10073 13.0204 2.38875 14.1617 2.94245C15.303 3.49615 16.304 4.30114 17.0897 5.29702C17.8755 6.2929 18.4254 7.4538 18.6984 8.69261C18.9713 9.93141 18.9601 11.2159 18.6657 12.4498C18.3712 13.6837 17.8012 14.8348 16.9982 15.8169C16.1953 16.799 15.1804 17.5864 14.0296 18.1202C12.8789 18.6539 11.6222 18.9201 10.3538 18.8988C9.08551 18.8775 7.83848 18.5692 6.70633 17.997L6.57928 17.9287L2.75203 18.8842C2.67837 18.9028 2.60157 18.9051 2.52693 18.891C2.45229 18.877 2.38159 18.8469 2.3197 18.8029C2.25781 18.7589 2.2062 18.702 2.16845 18.6361C2.1307 18.5702 2.10769 18.4969 2.10103 18.4212V18.3351L2.11573 18.2479L3.07123 14.4217L3.00508 14.2957C2.52577 13.3494 2.23006 12.3208 2.13358 11.2644L2.10733 10.8633L2.09998 10.5C2.09998 8.27218 2.98497 6.13561 4.56028 4.5603C6.13558 2.985 8.27216 2.1 10.5 2.1ZM11.025 11.55H7.87498L7.78048 11.5584C7.65943 11.5803 7.54992 11.644 7.47107 11.7385C7.39221 11.8329 7.34901 11.952 7.34901 12.075C7.34901 12.198 7.39221 12.3171 7.47107 12.4115C7.54992 12.506 7.65943 12.5697 7.78048 12.5916L7.87498 12.6H11.025L11.1195 12.5916C11.2405 12.5697 11.35 12.506 11.4289 12.4115C11.5077 12.3171 11.5509 12.198 11.5509 12.075C11.5509 11.952 11.5077 11.8329 11.4289 11.7385C11.35 11.644 11.2405 11.5803 11.1195 11.5584L11.025 11.55ZM13.125 8.4H7.87498L7.78048 8.4084C7.65943 8.43032 7.54992 8.49404 7.47107 8.58846C7.39221 8.68287 7.34901 8.80198 7.34901 8.925C7.34901 9.04801 7.39221 9.16712 7.47107 9.26154C7.54992 9.35595 7.65943 9.41968 7.78048 9.4416L7.87498 9.45H13.125L13.2195 9.4416C13.3405 9.41968 13.45 9.35595 13.5289 9.26154C13.6077 9.16712 13.6509 9.04801 13.6509 8.925C13.6509 8.80198 13.6077 8.68287 13.5289 8.58846C13.45 8.49404 13.3405 8.43032 13.2195 8.4084L13.125 8.4Z" fill="#002DE3"/>
</svg>
