<svg width="16" height="16" viewBox="0 0 16 16" fill="none" xmlns="http://www.w3.org/2000/svg">
<path fill-rule="evenodd" clip-rule="evenodd" d="M7.83333 1.83331C7.06729 1.83331 6.30875 1.9842 5.60101 2.27735C4.89328 2.5705 4.25022 3.00018 3.70854 3.54186C3.16687 4.08353 2.73719 4.72659 2.44404 5.43433C2.15088 6.14206 2 6.9006 2 7.66665C2 8.43269 2.15088 9.19123 2.44404 9.89897C2.73719 10.6067 3.16687 11.2498 3.70854 11.7914C4.25022 12.3331 4.89328 12.7628 5.60101 13.0559C6.30875 13.3491 7.06729 13.5 7.83333 13.5C9.38043 13.5 10.8642 12.8854 11.9581 11.7914C13.0521 10.6975 13.6667 9.21374 13.6667 7.66665C13.6667 6.11955 13.0521 4.63582 11.9581 3.54186C10.8642 2.44789 9.38043 1.83331 7.83333 1.83331ZM1 7.66665C1 3.89331 4.06 0.833313 7.83333 0.833313C11.6067 0.833313 14.6667 3.89331 14.6667 7.66665C14.6667 9.37331 14.0407 10.9346 13.006 12.132L15.1867 14.3133C15.2358 14.3591 15.2752 14.4143 15.3025 14.4756C15.3298 14.537 15.3445 14.6032 15.3457 14.6703C15.3469 14.7374 15.3346 14.8041 15.3094 14.8664C15.2843 14.9286 15.2468 14.9852 15.1994 15.0327C15.1519 15.0802 15.0953 15.1176 15.0331 15.1427C14.9708 15.1679 14.9041 15.1802 14.837 15.179C14.7699 15.1779 14.7036 15.1632 14.6423 15.1358C14.581 15.1085 14.5258 15.0691 14.48 15.02L12.2987 12.8393C11.0592 13.9132 9.47334 14.503 7.83333 14.5C4.06 14.5 1 11.44 1 7.66665Z" fill="#424242"/>
</svg>
