<svg width="21" height="21" viewBox="0 0 21 21" fill="none" xmlns="http://www.w3.org/2000/svg">
<path fill-rule="evenodd" clip-rule="evenodd" d="M10.5 1.09375C9.39768 1.09375 8.34052 1.53164 7.56108 2.31109C6.78163 3.09054 6.34374 4.14769 6.34374 5.25C6.34374 6.3523 6.78163 7.40946 7.56108 8.18891C8.34052 8.96836 9.39768 9.40625 10.5 9.40625C11.6023 9.40625 12.6595 8.96836 13.4389 8.18891C14.2183 7.40946 14.6562 6.3523 14.6562 5.25C14.6562 4.14769 14.2183 3.09054 13.4389 2.31109C12.6595 1.53164 11.6023 1.09375 10.5 1.09375ZM7.65624 5.25C7.65624 4.49579 7.95585 3.77247 8.48915 3.23916C9.02246 2.70586 9.74578 2.40625 10.5 2.40625C11.2542 2.40625 11.9775 2.70586 12.5108 3.23916C13.0441 3.77247 13.3437 4.49579 13.3437 5.25C13.3437 6.00421 13.0441 6.72753 12.5108 7.26083C11.9775 7.79414 11.2542 8.09375 10.5 8.09375C9.74578 8.09375 9.02246 7.79414 8.48915 7.26083C7.95585 6.72753 7.65624 6.00421 7.65624 5.25ZM10.5 10.7187C8.47611 10.7187 6.61061 11.179 5.22899 11.956C3.86749 12.7225 2.84374 13.8827 2.84374 15.3125V15.4017C2.84286 16.4185 2.84199 17.6942 3.96111 18.606C4.51149 19.054 5.28236 19.3734 6.32361 19.5834C7.36661 19.7951 8.72724 19.9062 10.5 19.9062C12.2727 19.9062 13.6325 19.7951 14.6772 19.5834C15.7185 19.3734 16.4885 19.054 17.0397 18.606C18.1589 17.6942 18.1571 16.4185 18.1562 15.4017V15.3125C18.1562 13.8827 17.1325 12.7225 15.7719 11.956C14.3894 11.179 12.5247 10.7187 10.5 10.7187ZM4.15624 15.3125C4.15624 14.5679 4.70049 13.7594 5.87211 13.1005C7.02361 12.453 8.65811 12.0312 10.5009 12.0312C12.3419 12.0312 13.9764 12.453 15.1279 13.1005C16.3004 13.7594 16.8437 14.5679 16.8437 15.3125C16.8437 16.457 16.8087 17.101 16.2102 17.5875C15.8865 17.8517 15.344 18.1099 14.4165 18.2971C13.4916 18.4844 12.2272 18.5937 10.5 18.5937C8.77274 18.5937 7.50749 18.4844 6.58349 18.2971C5.65599 18.1099 5.11349 17.8517 4.78974 17.5884C4.19124 17.101 4.15624 16.457 4.15624 15.3125Z" fill="#555555"/>
</svg>
