<svg width="21" height="21" viewBox="0 0 21 21" fill="none" xmlns="http://www.w3.org/2000/svg">
<path fill-rule="evenodd" clip-rule="evenodd" d="M10.5 2.40625C8.3534 2.40625 6.29473 3.25898 4.77685 4.77685C3.25898 6.29473 2.40625 8.3534 2.40625 10.5C2.40625 12.6466 3.25898 14.7053 4.77685 16.2231C6.29473 17.741 8.3534 18.5937 10.5 18.5937C12.6466 18.5937 14.7053 17.741 16.2231 16.2231C17.741 14.7053 18.5937 12.6466 18.5937 10.5C18.5937 8.3534 17.741 6.29473 16.2231 4.77685C14.7053 3.25898 12.6466 2.40625 10.5 2.40625ZM1.09375 10.5C1.09375 5.30512 5.30512 1.09375 10.5 1.09375C15.6949 1.09375 19.9062 5.30512 19.9062 10.5C19.9062 15.6949 15.6949 19.9062 10.5 19.9062C5.30512 19.9062 1.09375 15.6949 1.09375 10.5ZM10.5 6.34375C10.674 6.34375 10.841 6.41289 10.964 6.53596C11.0871 6.65903 11.1562 6.82595 11.1562 7V10.2287L13.1512 12.2237C13.2157 12.2838 13.2674 12.3563 13.3033 12.4368C13.3392 12.5173 13.3585 12.6042 13.36 12.6923C13.3616 12.7804 13.3454 12.8679 13.3124 12.9496C13.2793 13.0314 13.2302 13.1056 13.1679 13.1679C13.1056 13.2302 13.0314 13.2793 12.9496 13.3124C12.8679 13.3454 12.7804 13.3616 12.6923 13.36C12.6042 13.3585 12.5173 13.3392 12.4368 13.3033C12.3563 13.2674 12.2838 13.2157 12.2237 13.1512L10.0362 10.9637C9.91314 10.8408 9.8439 10.674 9.84375 10.5V7C9.84375 6.82595 9.91289 6.65903 10.036 6.53596C10.159 6.41289 10.3259 6.34375 10.5 6.34375Z" fill="#555555"/>
</svg>
