<svg width="21" height="21" viewBox="0 0 21 21" fill="none" xmlns="http://www.w3.org/2000/svg">
<path fill-rule="evenodd" clip-rule="evenodd" d="M9.576 1.09375H11.424C13.0322 1.09375 14.3063 1.09375 15.3029 1.22762C16.3284 1.36587 17.1587 1.65637 17.8141 2.31087C18.4686 2.96625 18.7591 3.79662 18.8974 4.82212C19.0312 5.81962 19.0312 7.09275 19.0312 8.701V12.299C19.0312 13.9072 19.0312 15.1812 18.8974 16.1779C18.7591 17.2034 18.4686 18.0337 17.8141 18.6891C17.1587 19.3436 16.3284 19.6341 15.3029 19.7724C14.3054 19.9062 13.0322 19.9062 11.424 19.9062H9.576C7.96775 19.9062 6.69375 19.9062 5.69713 19.7724C4.67163 19.6341 3.84125 19.3436 3.18588 18.6891C2.53137 18.0337 2.24088 17.2034 2.10263 16.1779C1.96875 15.1804 1.96875 13.9072 1.96875 12.299V8.701C1.96875 7.09275 1.96875 5.81875 2.10263 4.82212C2.24088 3.79662 2.53137 2.96625 3.18588 2.31087C3.84125 1.65637 4.67163 1.36587 5.69713 1.22762C6.69462 1.09375 7.96775 1.09375 9.576 1.09375ZM5.87125 2.52875C4.991 2.64687 4.4835 2.86912 4.1125 3.23925C3.74325 3.60937 3.521 4.11687 3.40287 4.99712C3.28212 5.89662 3.28038 7.08137 3.28038 8.75V12.25C3.28038 13.9186 3.28212 15.1042 3.40287 16.0037C3.521 16.8831 3.74325 17.3906 4.11338 17.7607C4.4835 18.1309 4.991 18.3531 5.87125 18.4712C6.77075 18.592 7.9555 18.5937 9.62412 18.5937H11.3741C13.0427 18.5937 14.2284 18.592 15.1279 18.4712C16.0072 18.3531 16.5148 18.1309 16.8849 17.7607C17.255 17.3906 17.4772 16.8831 17.5954 16.0029C17.7161 15.1042 17.7179 13.9186 17.7179 12.25V8.75C17.7179 7.08137 17.7161 5.89662 17.5954 4.99625C17.4772 4.11687 17.255 3.60937 16.8849 3.23925C16.5148 2.86912 16.0072 2.64687 15.127 2.52875C14.2284 2.408 13.0427 2.40625 11.3741 2.40625H9.62412C7.9555 2.40625 6.77163 2.408 5.87125 2.52875ZM6.34375 8.75C6.34375 8.57595 6.41289 8.40903 6.53596 8.28596C6.65903 8.16289 6.82595 8.09375 7 8.09375H14C14.174 8.09375 14.341 8.16289 14.464 8.28596C14.5871 8.40903 14.6562 8.57595 14.6562 8.75C14.6562 8.92405 14.5871 9.09097 14.464 9.21404C14.341 9.33711 14.174 9.40625 14 9.40625H7C6.82595 9.40625 6.65903 9.33711 6.53596 9.21404C6.41289 9.09097 6.34375 8.92405 6.34375 8.75ZM6.34375 12.25C6.34375 12.0759 6.41289 11.909 6.53596 11.786C6.65903 11.6629 6.82595 11.5937 7 11.5937H11.375C11.549 11.5937 11.716 11.6629 11.839 11.786C11.9621 11.909 12.0312 12.0759 12.0312 12.25C12.0312 12.424 11.9621 12.591 11.839 12.714C11.716 12.8371 11.549 12.9062 11.375 12.9062H7C6.82595 12.9062 6.65903 12.8371 6.53596 12.714C6.41289 12.591 6.34375 12.424 6.34375 12.25Z" fill="#555555"/>
</svg>
