<svg width="17" height="12" viewBox="0 0 17 12" fill="none" xmlns="http://www.w3.org/2000/svg">
<path d="M6.11524 8.91873C7.53499 7.69325 9.61443 7.69326 11.0342 8.91873C11.1056 8.98466 11.1475 9.07825 11.1494 9.17654C11.1514 9.27473 11.1135 9.36941 11.0449 9.43826L8.82129 11.7283C8.75623 11.7955 8.66774 11.8336 8.5752 11.8338C8.48249 11.8338 8.3933 11.7956 8.32813 11.7283L6.1045 9.43826C6.03583 9.36936 5.99799 9.27479 6.00001 9.17654C6.00204 9.07825 6.04375 8.98461 6.11524 8.91873ZM3.10938 6.17849C6.16846 3.2739 10.9058 3.2739 13.9648 6.17849C14.0338 6.24659 14.0732 6.34031 14.0742 6.43826C14.0751 6.53615 14.0373 6.63052 13.9697 6.69998L12.6846 8.02517C12.5521 8.16053 12.338 8.16378 12.2022 8.03201C11.1977 7.10358 9.8912 6.58964 8.53614 6.58962C7.18187 6.5902 5.87595 7.10416 4.87208 8.03201C4.73622 8.16377 4.52211 8.16048 4.38965 8.02517L3.1045 6.69998C3.03673 6.63061 2.99917 6.53621 3.00001 6.43826C3.00091 6.34023 3.04031 6.2466 3.10938 6.17849ZM0.107427 3.44216C4.79931 -1.14735 12.2007 -1.14742 16.8926 3.44216C16.9605 3.51035 16.9994 3.60371 17 3.70095C17.0005 3.79806 16.9626 3.89181 16.8955 3.96072L15.6094 5.28591C15.4769 5.42186 15.2616 5.42352 15.127 5.28982C13.3393 3.55505 10.9666 2.58778 8.50001 2.58767C6.0333 2.58773 3.66083 3.555 1.87305 5.28982C1.73851 5.42383 1.52308 5.4221 1.39063 5.28591L0.103521 3.96072C0.0365415 3.89178 -0.000505098 3.79803 5.24521e-06 3.70095C0.000631965 3.60371 0.0394615 3.5103 0.107427 3.44216Z" fill="black"/>
</svg>
